<svg width="157" height="101" viewBox="0 0 157 101" fill="none" xmlns="http://www.w3.org/2000/svg">
<path d="M156.404 82.5619V100.405C134.135 102.407 117.669 91.5558 107.195 65.273C103.133 55.0975 98.8639 45.0787 94.5649 35.0839C90.6883 26.0659 85.0593 20.6766 76.3159 20.0135C76.3159 30.3097 76.4402 40.2682 76.2956 50.2267C75.904 76.1478 61.7892 97.4878 43.3033 100.321C23.2812 103.396 5.29017 87.4811 1.10429 61.837C-0.349427 52.9514 0.207315 43.427 0.0732841 34.1918C-0.0710566 23.4014 0.0423539 12.611 0.0423539 1.15741V0H14.497V5.82321C14.497 8.90967 14.497 11.9358 14.5074 14.9619C14.5486 27.5729 14.1568 40.22 14.7754 52.7827C15.6002 69.6737 26.2196 82.0193 38.6329 81.6094C51.3039 81.1874 61.4696 67.8169 61.7583 50.6608C61.9851 36.7718 61.7995 22.8708 61.7995 8.96994V1.6276C82.9968 -4.12327 98.7818 5.44947 108.999 29.7068C112.948 39.0867 116.999 48.3942 120.835 57.8584C125.763 69.9991 132.701 77.2932 141.537 80.1867V16.9874C141.537 16.9874 141.496 17.0477 141.486 17.0718V16.9512C140.197 18.7959 138.362 20.4958 135.991 22.0752C133.619 23.6425 131.165 24.6552 128.609 25.1255V9.3678C133.114 7.28204 137.424 4.14738 141.537 0.0120564H156.363V82.5378C156.363 82.5378 156.394 82.5498 156.404 82.5619Z" fill="#183862"/>
</svg>
